<mxfile host="app.diagrams.net" modified="2021-05-15T20:36:29.819Z" agent="5.0 (X11; CrOS aarch64 13816.64.0) AppleWebKit/537.36 (KHTML, like Gecko) Chrome/90.0.4430.100 Safari/537.36" etag="4AeOjlupvp-6CsLnRQno" version="14.6.13" type="github">
  <diagram id="-pfJG1GgppRW7LtvISI4" name="Page-1">
    <mxGraphModel dx="582" dy="383" grid="1" gridSize="10" guides="1" tooltips="1" connect="1" arrows="1" fold="1" page="1" pageScale="1" pageWidth="850" pageHeight="1100" math="0" shadow="0">
      <root>
        <mxCell id="0" />
        <mxCell id="1" parent="0" />
        <mxCell id="7o0_zgjmkkrCdTxmgVMv-8" style="edgeStyle=orthogonalEdgeStyle;rounded=0;orthogonalLoop=1;jettySize=auto;html=1;exitX=0.5;exitY=1;exitDx=0;exitDy=0;entryX=0.5;entryY=0;entryDx=0;entryDy=0;" edge="1" parent="1" source="7o0_zgjmkkrCdTxmgVMv-1" target="7o0_zgjmkkrCdTxmgVMv-2">
          <mxGeometry relative="1" as="geometry" />
        </mxCell>
        <mxCell id="7o0_zgjmkkrCdTxmgVMv-10" style="edgeStyle=orthogonalEdgeStyle;rounded=0;orthogonalLoop=1;jettySize=auto;html=1;exitX=0.5;exitY=1;exitDx=0;exitDy=0;entryX=0.5;entryY=0;entryDx=0;entryDy=0;" edge="1" parent="1" source="7o0_zgjmkkrCdTxmgVMv-1" target="7o0_zgjmkkrCdTxmgVMv-3">
          <mxGeometry relative="1" as="geometry" />
        </mxCell>
        <mxCell id="7o0_zgjmkkrCdTxmgVMv-12" style="edgeStyle=orthogonalEdgeStyle;rounded=0;orthogonalLoop=1;jettySize=auto;html=1;exitX=0.5;exitY=1;exitDx=0;exitDy=0;entryX=0.5;entryY=0;entryDx=0;entryDy=0;" edge="1" parent="1" source="7o0_zgjmkkrCdTxmgVMv-1" target="7o0_zgjmkkrCdTxmgVMv-4">
          <mxGeometry relative="1" as="geometry" />
        </mxCell>
        <mxCell id="7o0_zgjmkkrCdTxmgVMv-1" value="Square Program" style="rounded=0;whiteSpace=wrap;html=1;" vertex="1" parent="1">
          <mxGeometry x="240" y="170" width="120" height="60" as="geometry" />
        </mxCell>
        <mxCell id="7o0_zgjmkkrCdTxmgVMv-9" style="edgeStyle=orthogonalEdgeStyle;rounded=0;orthogonalLoop=1;jettySize=auto;html=1;exitX=0.5;exitY=1;exitDx=0;exitDy=0;entryX=0.5;entryY=0;entryDx=0;entryDy=0;" edge="1" parent="1" source="7o0_zgjmkkrCdTxmgVMv-2" target="7o0_zgjmkkrCdTxmgVMv-5">
          <mxGeometry relative="1" as="geometry" />
        </mxCell>
        <mxCell id="7o0_zgjmkkrCdTxmgVMv-2" value="Input" style="rounded=0;whiteSpace=wrap;html=1;" vertex="1" parent="1">
          <mxGeometry x="80" y="270" width="120" height="60" as="geometry" />
        </mxCell>
        <mxCell id="7o0_zgjmkkrCdTxmgVMv-11" style="edgeStyle=orthogonalEdgeStyle;rounded=0;orthogonalLoop=1;jettySize=auto;html=1;exitX=0.5;exitY=1;exitDx=0;exitDy=0;entryX=0.5;entryY=0;entryDx=0;entryDy=0;" edge="1" parent="1" source="7o0_zgjmkkrCdTxmgVMv-3" target="7o0_zgjmkkrCdTxmgVMv-6">
          <mxGeometry relative="1" as="geometry" />
        </mxCell>
        <mxCell id="7o0_zgjmkkrCdTxmgVMv-3" value="Process" style="rounded=0;whiteSpace=wrap;html=1;" vertex="1" parent="1">
          <mxGeometry x="240" y="270" width="120" height="60" as="geometry" />
        </mxCell>
        <mxCell id="7o0_zgjmkkrCdTxmgVMv-13" style="edgeStyle=orthogonalEdgeStyle;rounded=0;orthogonalLoop=1;jettySize=auto;html=1;exitX=0.5;exitY=1;exitDx=0;exitDy=0;entryX=0.5;entryY=0;entryDx=0;entryDy=0;" edge="1" parent="1" source="7o0_zgjmkkrCdTxmgVMv-4" target="7o0_zgjmkkrCdTxmgVMv-7">
          <mxGeometry relative="1" as="geometry" />
        </mxCell>
        <mxCell id="7o0_zgjmkkrCdTxmgVMv-4" value="Output" style="rounded=0;whiteSpace=wrap;html=1;" vertex="1" parent="1">
          <mxGeometry x="400" y="270" width="120" height="60" as="geometry" />
        </mxCell>
        <mxCell id="7o0_zgjmkkrCdTxmgVMv-5" value="Get number" style="rounded=0;whiteSpace=wrap;html=1;" vertex="1" parent="1">
          <mxGeometry x="80" y="360" width="120" height="60" as="geometry" />
        </mxCell>
        <mxCell id="7o0_zgjmkkrCdTxmgVMv-6" value="Calculate squared numbers with while loop" style="rounded=0;whiteSpace=wrap;html=1;" vertex="1" parent="1">
          <mxGeometry x="240" y="360" width="120" height="60" as="geometry" />
        </mxCell>
        <mxCell id="7o0_zgjmkkrCdTxmgVMv-7" value="Show answers" style="rounded=0;whiteSpace=wrap;html=1;" vertex="1" parent="1">
          <mxGeometry x="400" y="360" width="120" height="60" as="geometry" />
        </mxCell>
      </root>
    </mxGraphModel>
  </diagram>
</mxfile>
